<svg width="135" height="190" fill="none" xmlns="http://www.w3.org/2000/svg">
    <title>FIA</title>

    <g transform="translate(0, 0)">
        <path fill-rule="evenodd" clip-rule="evenodd" d="M61.367 7.887C54.825 18.203 51.984 25.127 51.883 31.001C51.773 37.394 53.286 40.869 57.225 43.272C64.274 47.571 72.095 47.048 77.709 41.903C82.62 37.402 83.259 31.196 79.715 22.421C77.122 16.002 72.147 7.246 68.477 2.644L66.369 0L61.367 7.887ZM38.009 39.512C38.028 41.966 43.976 51.122 46.911 53.211C51.068 56.172 57 58.549 57 57.255C57 54.687 51.724 46.166 48.711 43.868C44.065 40.325 37.997 37.854 38.009 39.512ZM89.5 40.842C83.628 43.885 78.427 49.967 76.585 55.944C75.942 58.032 76.059 58.071 79.708 56.971C86.84 54.822 99.585 39.262 94.198 39.281C93.264 39.285 91.15 39.987 89.5 40.842ZM20.711 54.703C14.845 57.115 0.0369695 66.224 0.0129695 67.435C-0.0110305 68.662 14.347 77.556 20.173 79.924C27.716 82.989 35.684 83.098 39.385 80.187C45.03 75.746 46.815 67.412 43.698 60.047C40.438 52.342 31.503 50.265 20.711 54.703ZM96.5 53.175C93.728 54.397 90.338 58.234 89.067 61.59C87.501 65.723 87.796 70.229 89.943 74.959C94.729 85.499 107.793 84.737 126.065 72.85L134.255 67.523L128.055 63.313C115.265 54.627 102.505 50.527 96.5 53.175ZM64.091 59.374C58.644 61.531 57.337 67.703 61.455 71.82C66.322 76.688 74 73.345 74 66.357C74 60.729 69.205 57.349 64.091 59.374ZM50.867 79.283C46.442 81.621 39.444 89.371 38.554 92.918C37.714 96.262 38.111 96.563 41.607 95.234C46.219 93.481 50.986 89.367 54.105 84.448C58.725 77.163 57.768 75.636 50.867 79.283ZM77.46 80.833C79.829 86.504 82.968 90.299 87.849 93.394C93.727 97.122 95.431 97.155 94.548 93.525C92.914 86.811 83.08 77.275 77.791 77.275C76.096 77.275 76.074 77.515 77.46 80.833ZM61.771 89.442C57.528 90.604 52.052 96.217 51.899 99.56C51.645 105.109 52.365 109.201 54.537 114.551C56.905 120.385 65.57 134.275 66.842 134.275C68.172 134.275 78.065 117.52 80.022 111.954C82.522 104.84 82.528 99.653 80.04 95.574C76.691 90.079 68.939 87.478 61.771 89.442Z" fill="black"/>
    </g>

    <text transform="scale(0.1)" x="130" y="1500" fill="#000000" font-size="137" font-weight="600"
        font-family="Tahoma, Geneva, sans-serif">
        LOCAL SERVICE
    </text>
    <text transform="scale(0.1)" x="130" y="1700" fill="#000000" font-size="200" font-weight="800"
        font-family="Tahoma, Geneva, sans-serif">
        F I N D E R
    </text>
    <text transform="scale(0.1)" x="460" y="1890" fill="#000000" font-size="180" font-weight="500"
        font-family="Tahoma, Geneva, sans-serif">
        F I A
    </text>
</svg>
